<svg xmlns="http://www.w3.org/2000/svg" height="800" width="1200" viewBox="-24.864 -8.5 215.484 51" style="background-color:#222"><path d="M32.937 1.554c-3.968-2.48-9.193-1.889-13.852 1.039C14.44-.335 9.213-.925 5.25 1.553c-6.27 3.919-7.032 14.01-1.701 22.54 3.93 6.289 10.074 9.974 15.544 9.906 5.47.068 11.615-3.617 15.545-9.906 5.324-8.53 4.568-18.621-1.701-22.54zM6.43 22.292a20.434 20.434 0 01-2.46-5.632 16.105 16.105 0 01-.534-5.31c.238-3.153 1.521-5.608 3.612-6.914s4.855-1.385 7.8-.217c.441.177.878.38 1.312.606a24.09 24.09 0 00-4.227 5.081c-3.237 5.18-4.224 10.942-3.095 15.537a20.911 20.911 0 01-2.408-3.151zm27.786-5.634a20.482 20.482 0 01-2.46 5.632 21.1 21.1 0 01-2.408 3.158c1.01-4.12.323-9.165-2.153-13.897a.625.625 0 00-.895-.243l-7.72 4.823a.631.631 0 00-.2.87l1.133 1.811a.63.63 0 00.869.2l5.004-3.126c.162.486.324.971.445 1.457a16.1 16.1 0 01.536 5.303c-.238 3.151-1.522 5.606-3.612 6.914a7.06 7.06 0 01-3.579 1.036h-.16a7.051 7.051 0 01-3.578-1.036c-2.093-1.308-3.376-3.763-3.614-6.914a16.143 16.143 0 01.534-5.31 21.015 21.015 0 016.444-10.314 16.137 16.137 0 014.532-2.806c2.936-1.169 5.705-1.09 7.797.217 2.093 1.308 3.375 3.76 3.612 6.914a16.145 16.145 0 01-.527 5.311zm39.848-3.766c-4.06 0-7.34 3.169-7.34 7.2 0 4.004 3.28 7.121 7.34 7.121 4.086 0 7.366-3.112 7.366-7.12 0-4.03-3.275-7.2-7.366-7.2zm0 10.557c-1.871 0-3.295-1.513-3.295-3.384s1.424-3.407 3.295-3.407c1.898 0 3.322 1.54 3.322 3.412 0 1.87-1.424 3.385-3.322 3.385zM90.583 7.362h-7.469a.6.6 0 00-.61.612v18.208a.605.605 0 00.61.648h7.47c5.976 0 10.129-3.975 10.129-9.758 0-5.818-4.153-9.71-10.13-9.71zm.177 15.622h-4.087V11.198h4.087c3.308 0 5.588 2.474 5.588 5.866 0 3.336-2.28 5.92-5.588 5.92zm24.82-9.7h-2.809a.633.633 0 00-.582.612v.833c-.64-1.057-2.085-1.835-3.884-1.835-3.503 0-6.783 2.751-6.783 7.145 0 4.37 3.251 7.17 6.755 7.17 1.806 0 3.28-.776 3.92-1.833v.861a.588.588 0 00.582.585h2.808a.571.571 0 00.584-.585V13.896a.594.594 0 00-.592-.612zm-6.533 10.196c-1.86 0-3.256-1.43-3.256-3.412s1.397-3.41 3.256-3.41c1.86 0 3.257 1.426 3.257 3.408s-1.395 3.412-3.257 3.412zM131.34 7.362h-2.807a.592.592 0 00-.61.584v6.728c-.648-1.002-2.114-1.78-3.948-1.78-3.476 0-6.7 2.751-6.7 7.145 0 4.37 3.252 7.17 6.755 7.17 1.806 0 3.17-.776 3.92-1.833v.861a.586.586 0 00.583.585h2.808a.57.57 0 00.584-.585V7.95a.57.57 0 00-.585-.588zm-6.531 16.151c-1.852 0-3.237-1.443-3.237-3.447 0-2.003 1.39-3.447 3.237-3.447 1.846 0 3.236 1.444 3.236 3.447 0 2.004-1.383 3.448-3.236 3.448zm22.29-16.15h-2.803a.594.594 0 00-.612.583v6.728c-.64-1.002-2.114-1.78-3.947-1.78-3.477 0-6.7 2.751-6.7 7.145 0 4.37 3.253 7.17 6.755 7.17 1.807 0 3.168-.776 3.92-1.833v.861a.588.588 0 00.584.585h2.803a.568.568 0 00.582-.585V7.95a.568.568 0 00-.582-.588zm-6.532 16.15c-1.853 0-3.237-1.443-3.237-3.447 0-2.003 1.39-3.447 3.237-3.447s3.237 1.444 3.237 3.447c0 2.004-1.38 3.448-3.232 3.448zm21.906-9.283l-4.19 14.37c-.809 2.557-2.613 4.087-5.421 4.087-1.277 0-2.44-.261-3.35-.782-.531-.303-.971-.58-.971-1.023 0-.275.089-.418.25-.675l.832-1.246c.235-.348.408-.461.66-.461a.96.96 0 01.554.192c.523.339 1.008.63 1.748.63.864 0 1.524-.277 1.88-1.306l.36-1.193h-1.696c-.418 0-.648-.25-.751-.584l-3.75-12.009c-.14-.472-.011-.945.683-.945h2.953c.361 0 .614.123.772.64l2.77 9.67 2.589-9.67c.082-.334.306-.64.75-.64h2.802c.552-.001.719.387.526.945zm-96.806 4.275v7.676a.625.625 0 01-.634.634h-2.318a.623.623 0 01-.634-.634v-2.015c-1.471 1.858-4.03 3.028-6.924 3.028-5.434 0-9.68-4.088-9.68-9.908 0-6.048 4.584-10.217 10.376-10.217 4.276 0 7.694 1.839 9.212 5.537a.843.843 0 01.07.309c0 .175-.116.307-.486.435l-2.706 1.042a.694.694 0 01-.511.008.783.783 0 01-.324-.37c-.971-1.847-2.7-3.1-5.36-3.1-3.45 0-5.922 2.694-5.922 6.188 0 3.387 2.104 6.172 6.02 6.172 2.06 0 3.703-.97 4.469-2.037h-2.444a.625.625 0 01-.634-.635v-2.086a.625.625 0 01.634-.634h7.161a.604.604 0 01.635.607zm96.882-8.063v-.186a.051.051 0 01.013-.036.051.051 0 01.034-.013h1.183a.047.047 0 01.034.013.051.051 0 01.013.036v.186a.054.054 0 01-.013.034.047.047 0 01-.034.013h-.432v1.167a.05.05 0 01-.048.048h-.224a.044.044 0 01-.032-.014.048.048 0 01-.015-.034v-1.167h-.432a.044.044 0 01-.047-.047zm2.069-.193l.323.75.324-.75a.066.066 0 01.026-.032.087.087 0 01.044-.01h.375a.044.044 0 01.047.046v1.404a.042.042 0 01-.012.034.044.044 0 01-.033.013h-.21a.047.047 0 01-.035-.013.043.043 0 01-.013-.034v-1.06l-.348.77a.083.083 0 01-.025.038.079.079 0 01-.044.01h-.172a.078.078 0 01-.042-.01.073.073 0 01-.026-.037l-.346-.77v1.06a.054.054 0 01-.013.033.052.052 0 01-.032.013h-.216a.042.042 0 01-.03-.013.043.043 0 01-.013-.034v-1.404a.044.044 0 01.047-.046h.364a.086.086 0 01.042.01.066.066 0 01.018.032z" fill="#fff"/></svg>