<svg xmlns="http://www.w3.org/2000/svg" viewBox="0 0 512 512"><!--!Font Awesome Free 6.6.0 by @fontawesome - https://fontawesome.com License - https://fontawesome.com/license/free Copyright 2024 Fonticons, Inc.--><path fill="#c01c28" d="M504.4 115.8a5.7 5.7 0 00-.3-.7 8.5 8.5 0 00-.5-1.3 6 6 0 00-.5-.7 9.4 9.4 0 00-.7-.9c-.2-.2-.5-.4-.8-.6a8.8 8.8 0 00-.9-.7l-96.3-55.3a8 8 0 00-8 0L300.1 111a8.1 8.1 0 00-.9.7 7.7 7.7 0 00-.8.6 8.2 8.2 0 00-.7.9c-.2.2-.4.5-.5.7a9.7 9.7 0 00-.5 1.3c-.1.2-.2.4-.3.7a8.1 8.1 0 00-.3 2.1v105.2l-80.2 46.2v-206a7.8 7.8 0 00-.3-2.1c-.1-.2-.2-.5-.3-.7a8.4 8.4 0 00-.5-1.2c-.1-.3-.4-.5-.5-.7a9.4 9.4 0 00-.7-.9 9.5 9.5 0 00-.8-.6 9.8 9.8 0 00-.9-.7L115.6 1.1a8 8 0 00-8 0L11.3 56.5a6.5 6.5 0 00-.9.7 7.8 7.8 0 00-.8.6 8.2 8.2 0 00-.7.9c-.2.3-.4.5-.6.7a7.9 7.9 0 00-.5 1.2 6.5 6.5 0 00-.3.7 8.2 8.2 0 00-.3 2.1v329.7a8 8 0 004 7l192.5 110.8a8.8 8.8 0 001.3.5l.6.3a7.9 7.9 0 004.1 0c.2-.1.4-.2.6-.2a8.6 8.6 0 001.4-.6l192.7-110.8a8 8 0 004-7V287.9l92.2-53.1a8 8 0 004-7V117.9a8.6 8.6 0 00-.2-2.1zM111.6 17.3l80.2 46.2-80.2 46.2-80.2-46.3zm88.3 60v201.3l-46.5 26.8-33.7 19.4V123.5l46.5-26.8zm0 412.8L23.4 388.5V77.3l33.7 19.4 46.5 26.8v215.2a6.9 6.9 0 00.1.9 8 8 0 00.2 1.2 5.9 5.9 0 00.4.9 6.4 6.4 0 00.4 1 8.5 8.5 0 00.6.8 7.6 7.6 0 00.7.8c.2.2.5.4.8.6a8.9 8.9 0 00.9.7l92.2 52.2zm8-106.2l-80.1-45.3 84.1-48.4 92.3-53.1 80.1 46.1-58.8 33.6zm184.5 4.6L215.9 490.1v-92.3l130.7-74.6 45.8-26.2zm0-119.1L358.7 250l-46.5-26.8v-91.4l33.7 19.4 46.5 26.8zm8-105.3l-80.2-46.2 80.2-46.2 80.2 46.2zm8 105.3V178l46.6-26.8 33.7-19.4v91.4z"/></svg>